<svg width="29" height="22" viewBox="0 0 29 22" fill="none" xmlns="http://www.w3.org/2000/svg">
<path d="M5.088 17.288C3.952 17.288 2.904 17.08 1.944 16.664C1 16.232 0.224 15.624 -0.384 14.84L1.776 12.248C2.24 12.856 2.728 13.32 3.24 13.64C3.752 13.944 4.304 14.096 4.896 14.096C6.48 14.096 7.272 13.168 7.272 11.312V3.32H1.368V0.199999H11.136V11.096C11.136 13.176 10.624 14.728 9.6 15.752C8.576 16.776 7.072 17.288 5.088 17.288ZM22.3444 17.192C21.2564 17.192 20.3044 16.952 19.4884 16.472C18.6724 15.992 18.0324 15.264 17.5684 14.288C17.1204 13.296 16.8964 12.048 16.8964 10.544C16.8964 9.024 17.1124 7.776 17.5444 6.8C17.9764 5.824 18.6004 5.096 19.4164 4.616C20.2324 4.136 21.2084 3.896 22.3444 3.896C23.5604 3.896 24.6484 4.176 25.6084 4.736C26.5844 5.28 27.3524 6.048 27.9124 7.04C28.4884 8.032 28.7764 9.2 28.7764 10.544C28.7764 11.904 28.4884 13.08 27.9124 14.072C27.3524 15.064 26.5844 15.832 25.6084 16.376C24.6484 16.92 23.5604 17.192 22.3444 17.192ZM14.7124 21.656V4.088H18.2884V6.728L18.2164 10.568L18.4564 14.384V21.656H14.7124ZM21.6964 14.12C22.3204 14.12 22.8724 13.976 23.3524 13.688C23.8484 13.4 24.2404 12.992 24.5284 12.464C24.8324 11.92 24.9844 11.28 24.9844 10.544C24.9844 9.792 24.8324 9.152 24.5284 8.624C24.2404 8.096 23.8484 7.688 23.3524 7.4C22.8724 7.112 22.3204 6.968 21.6964 6.968C21.0724 6.968 20.5124 7.112 20.0164 7.4C19.5204 7.688 19.1284 8.096 18.8404 8.624C18.5524 9.152 18.4084 9.792 18.4084 10.544C18.4084 11.28 18.5524 11.92 18.8404 12.464C19.1284 12.992 19.5204 13.4 20.0164 13.688C20.5124 13.976 21.0724 14.12 21.6964 14.12Z" fill="#020C13"/>
</svg>
