<svg width="16" height="16" viewBox="0 0 16 16" fill="none" xmlns="http://www.w3.org/2000/svg">
<path d="M1.27736 11.2081C1.8041 11.4407 2.37913 11.5571 3.00245 11.5571C4.09106 11.5571 4.91629 11.2707 5.47815 10.698C6.04001 10.1253 6.32095 9.25728 6.32095 8.09397V2H0.961311V3.74497H4.2008V8.21477C4.2008 9.2528 3.76623 9.77182 2.8971 9.77182C2.57227 9.77182 2.2694 9.68681 1.98846 9.51678C1.70753 9.33781 1.43977 9.0783 1.18518 8.73826L0 10.1879C0.333605 10.6264 0.759391 10.9665 1.27736 11.2081Z" 
fill="#766798"/>
<path fill-rule="evenodd" clip-rule="evenodd" d="M10.9037 11.1007C11.3515 11.3691 11.8738 11.5034 12.4708 11.5034C13.138 11.5034 13.735 11.3512 14.2617 11.047C14.7973 10.7427 15.2187 10.3132 15.5259 9.75839C15.842 9.20358 16 8.54586 16 7.78523C16 7.03355 15.842 6.38031 15.5259 5.8255C15.2187 5.27069 14.7973 4.84116 14.2617 4.53691C13.735 4.22371 13.138 4.06711 12.4708 4.06711C11.8475 4.06711 11.312 4.20133 10.8642 4.46979C10.6288 4.61096 10.4225 4.79048 10.2453 5.00835V4.17449H8.28318V14H10.3375V10.6314C10.505 10.8183 10.6937 10.9748 10.9037 11.1007ZM13.0239 9.54362C12.7605 9.70469 12.4576 9.78523 12.1153 9.78523C11.7729 9.78523 11.4656 9.70469 11.1934 9.54362C10.9213 9.38255 10.7062 9.15436 10.5482 8.85906C10.3902 8.55481 10.3111 8.19686 10.3111 7.78523C10.3111 7.36465 10.3902 7.00671 10.5482 6.7114C10.7062 6.4161 10.9213 6.18791 11.1934 6.02684C11.4656 5.86577 11.7729 5.78523 12.1153 5.78523C12.4576 5.78523 12.7605 5.86577 13.0239 6.02684C13.296 6.18791 13.5111 6.4161 13.6692 6.7114C13.836 7.00671 13.9194 7.36465 13.9194 7.78523C13.9194 8.19686 13.836 8.55481 13.6692 8.85906C13.5111 9.15436 13.296 9.38255 13.0239 9.54362Z"
 fill="#766798"/>
</svg>
