<svg width="512" height="512" viewBox="0 0 512 512" fill="none" xmlns="http://www.w3.org/2000/svg">
<path d="M190.8 428.4C168.8 408.4 162 365.6 171.2 334.8C187.2 354.4 209.6 360.4 232.8 364C268.4 369.2 303.2 367.2 336.4 351.2L347.6 344.4C351.914 359.065 351.448 374.722 346.27 389.105C341.092 403.488 331.471 415.849 318.8 424.4L296.8 439.6C274.4 454.8 268 472.4 276.8 498.4L277.6 501.2C266.655 496.709 257.413 488.868 251.2 478.8C244.478 468.581 240.865 456.631 240.8 444.4C240.8 438.4 240.8 432.4 240 426.4C238 411.6 231.2 405.2 218 404.8C204.8 404.4 194.4 412.8 191.6 425.6L190.8 428.4Z" fill="white"/>
<path d="M64 329.6C64 329.6 130 297.6 196 297.6L245.6 144.4C247.6 136.4 252.8 131.6 258.8 131.6C265.2 131.6 270.8 136.8 272.4 144.4L322 297.6C400.4 297.6 454 329.6 454 329.6L342 25.5998C338.8 16.3998 333.2 10.7998 326 10.7998H192C184.8 10.7998 179.6 16.3998 176 25.5998L64 329.6Z" fill="white"/>
<path d="M190.8 428.4C168.8 408.4 162 365.6 171.2 334.8C187.2 354.4 209.6 360.4 232.8 364C268.4 369.2 303.2 367.2 336.4 351.2L347.6 344.4C351.914 359.065 351.448 374.722 346.27 389.105C341.092 403.488 331.471 415.849 318.8 424.4L296.8 439.6C274.4 454.8 268 472.4 276.8 498.4L277.6 501.2C266.655 496.709 257.413 488.868 251.2 478.8C244.478 468.581 240.865 456.631 240.8 444.4C240.8 438.4 240.8 432.4 240 426.4C238 411.6 231.2 405.2 218 404.8C204.8 404.4 194.4 412.8 191.6 425.6L190.8 428.4Z" fill="url(#paint0_linear_41_120)"/>
<defs>
<linearGradient id="paint0_linear_41_120" x1="258.8" y1="476.8" x2="309.6" y2="309.6" gradientUnits="userSpaceOnUse">
<stop stop-color="#D83333"/>
<stop offset="1" stop-color="#F041FF"/>
</linearGradient>
</defs>
</svg>
