<svg width="512" height="512" viewBox="0 0 512 512" fill="none" xmlns="http://www.w3.org/2000/svg">
<g clip-path="url(#clip0_38_119)">
<path d="M79.72 108.236L0.624 187.436L122.608 309.796L0 432.764L78.86 512.016L201.72 389L323.908 511.124L403.016 431.924L79.72 108.236Z" fill="#53B9FF"/>
<path d="M281.032 309.8L201.72 389L323.908 511.124L403.016 431.924L281.032 309.8Z" fill="#119EFF"/>
<path d="M281.032 309.8L201.72 389L232.252 419.36L281.032 309.8Z" fill="black" fill-opacity="0.2"/>
<path d="M389.14 201.968L512 78.952L432.86 0L310.048 122.764L187.828 0.624L108.736 79.828L432.016 403.516L511.124 324.316L389.14 201.968Z" fill="#53B9FF"/>
<path d="M230.72 201.968L310.032 122.768L187.828 0.620117L108.736 79.8281L230.72 201.968Z" fill="#119EFF"/>
<path d="M230.72 201.968L310.032 122.768L279.5 92.3921L230.72 201.968Z" fill="black" fill-opacity="0.2"/>
</g>
<defs>
<clipPath id="clip0_38_119">
<rect width="512" height="512" fill="white"/>
</clipPath>
</defs>
</svg>
