<svg width="512" height="512" viewBox="0 0 512 512" fill="none" xmlns="http://www.w3.org/2000/svg">
<path d="M130.108 126.24C58.3659 126.24 0 184.453 0 256C0 327.548 58.368 385.76 130.108 385.76H381.892C453.634 385.76 512 327.548 512 256C512 184.453 453.632 126.24 381.892 126.24H130.108ZM127.518 167.488C138.035 167.753 149.278 172.813 154.675 180.775C162.511 190.571 164.868 203.533 173.756 212.63C185.711 225.681 199.334 237.174 210.366 251.072C220.802 263.774 228.256 278.671 234.763 293.686C237.417 298.667 237.444 304.783 241.376 309.039C243.313 311.608 252.781 318.603 250.726 321.082C251.91 323.65 260.757 327.183 257.687 329.673C253.54 330.526 248.879 330.688 245.707 327.382C244.535 330.07 241.803 328.653 239.693 328.303C239.51 328.825 239.332 329.348 239.159 329.873C232.145 330.34 226.884 323.205 223.543 317.82C216.907 314.236 209.374 312.056 202.594 308.305C202.206 314.481 203.558 322.14 197.666 326.125C197.367 337.997 215.663 327.525 217.34 336.374C216.038 336.517 214.596 336.171 213.555 337.169C208.779 341.803 203.305 333.66 197.801 337.02C190.411 340.732 189.677 343.763 180.529 344.529C180.023 343.763 180.224 343.266 180.655 342.799C183.23 339.815 183.418 336.301 187.814 335.027C183.287 334.315 179.497 336.805 175.684 338.776C170.729 340.802 170.769 334.208 163.145 339.126C162.3 338.439 162.701 337.814 163.183 337.282C165.12 334.921 167.667 334.573 170.543 334.705C156.399 326.842 149.741 344.32 143.209 335.627C141.246 336.145 140.51 337.905 139.273 339.151C138.206 337.982 139.01 336.566 139.061 335.19C137.786 334.592 136.169 334.315 136.546 332.275C134.048 331.433 132.305 332.905 130.445 334.306C128.766 333.009 131.58 331.123 132.1 329.773C133.598 327.179 137.007 329.24 138.737 327.371C143.657 324.58 150.513 329.107 156.134 328.342C160.465 328.886 165.828 324.448 163.657 320.022C159.025 314.119 159.838 306.398 159.733 299.339C159.162 295.224 149.259 289.991 146.396 285.553C142.857 281.558 140.102 276.92 137.344 272.365C127.39 253.148 130.522 228.453 117.98 210.611C112.305 213.739 104.913 212.263 100.021 208.073C97.3803 210.473 97.2651 213.615 97.056 216.95C90.72 210.631 91.5243 198.69 96.5867 191.659C98.6539 188.881 101.124 186.597 103.883 184.585C104.506 184.13 104.717 183.691 104.704 182.991C107.209 171.755 117.001 167.224 127.518 167.488ZM392.203 177.302C404.096 177.302 415.255 181.907 423.648 190.277C432.041 198.646 436.661 209.786 436.661 221.645C436.661 233.506 432.038 244.642 423.648 253.001L404.405 272.203C399.282 277.318 392.986 281.101 386.065 283.224L385.715 283.324L385.591 283.674C383.377 289.535 379.928 294.852 375.479 299.264L356.241 318.454C347.849 326.825 336.678 331.431 324.785 331.431C312.892 331.431 301.732 326.823 293.34 318.454C275.996 301.159 275.996 273.026 293.34 255.729L312.58 236.54C317.685 231.432 323.973 227.663 330.884 225.568L331.247 225.455L331.371 225.118C333.597 219.239 337.053 213.902 341.508 209.466L360.747 190.277C369.139 181.905 380.311 177.302 392.203 177.302ZM392.203 196.427C388.88 196.416 385.588 197.063 382.517 198.331C379.446 199.598 376.656 201.461 374.308 203.813L355.07 223.002C352.5 225.57 350.516 228.664 349.255 232.071C347.993 235.477 347.482 239.117 347.759 242.739L347.872 243.96C348.561 249.617 351.051 254.72 355.07 258.716C357.843 261.481 360.9 263.226 364.608 264.446C364.807 265.56 364.907 266.689 364.907 267.821C364.916 270.32 364.429 272.795 363.473 275.104C362.518 277.413 361.113 279.508 359.341 281.27L358.159 282.451C351.731 280.258 346.372 277.054 341.532 272.229C335.131 265.875 330.84 257.706 329.242 248.83L329.03 247.597L328.047 248.382C327.394 248.913 326.77 249.478 326.178 250.076L306.927 269.265C297.065 279.1 297.065 295.121 306.927 304.956C311.857 309.873 318.34 312.337 324.834 312.339C331.326 312.339 337.798 309.873 342.729 304.954L361.969 285.765C371.831 275.93 371.831 259.923 361.969 250.074C359.339 247.45 356.156 245.446 352.653 244.209C352.461 243.074 352.361 241.924 352.354 240.772C352.354 235.245 354.537 229.999 358.543 226.003C364.983 228.196 370.703 231.751 375.529 236.563C381.943 242.961 386.182 251.049 387.808 259.962L388.032 261.195L389.003 260.399C389.664 259.869 390.295 259.304 390.895 258.705L410.138 239.514C419.998 229.679 420.011 213.649 410.138 203.813C407.788 201.46 404.996 199.596 401.922 198.328C398.848 197.06 395.553 196.414 392.228 196.427H392.203ZM179.445 306.436C177.754 313.003 177.197 324.194 168.638 324.519C167.934 328.307 171.258 329.735 174.302 328.517C177.31 327.141 178.741 329.6 179.757 332.051C184.401 332.728 191.264 330.505 191.524 325.016C184.591 321.033 182.451 313.457 179.445 306.436Z" fill="white"/>
</svg>
