<svg width="512" height="512" viewBox="0 0 512 512" fill="none" xmlns="http://www.w3.org/2000/svg">
<path d="M256 32C132.45 32 32 132.45 32 256C32 379.55 132.45 480 256 480C379.55 480 480 379.55 480 256C480 132.45 379.55 32 256 32Z" fill="#FDDD4C"/>
<path d="M157.901 314.403C153.004 306.987 165.323 295.765 160.312 286.341C157.424 280.907 152.702 277.52 147.032 276.81C141.591 276.127 135.985 278.119 132.412 282.011C126.77 288.151 125.893 296.507 126.984 299.464C127.384 300.547 128.011 300.843 128.461 300.907C131.533 301.312 133.262 293.426 134.323 291.783C137.256 287.256 143.916 285.887 148.516 288.861C157.237 294.503 149.675 303.619 150.327 311.319C150.962 318.816 155.633 321.831 159.827 322.147C163.907 322.301 166.76 320.035 167.48 318.381C169.206 314.431 161.931 320.504 157.901 314.403Z" fill="black"/>
<path d="M340.123 246.333C337.835 246.018 335.336 246.024 332.734 246.333C330.76 243.842 328.99 239.806 327.992 235.098C326.216 226.72 326.402 220.651 331.358 219.862C336.315 219.075 338.71 224.144 340.486 232.522C341.678 238.154 341.45 243.328 340.123 246.333Z" fill="black"/>
<path d="M285.834 251.319C286.03 253.215 286.099 255.135 286.043 256.903C290.84 257.184 294.237 259.461 295.141 260.907C295.605 261.653 295.419 262.139 295.27 262.363C294.773 263.136 293.709 263.018 291.48 262.767C289.533 262.549 287.437 262.357 285.258 262.456C284.072 266.093 280.557 266.434 278.086 263.744C276.362 264.269 272.973 266.434 271.962 264.082C271.954 262.915 273.174 261.218 275.384 259.72C273.875 256.842 272.864 253.762 272.267 250.571C269.134 251.136 266.315 252.013 264.106 252.701C263.069 253.024 258.965 254.879 258.483 252.789C258.162 251.346 260.408 248.967 262.784 247.248C265.437 245.365 268.381 244.026 271.434 243.253C271.368 238.709 272.526 235.538 275.829 235.013C279.922 234.362 282.459 237.514 284.214 243.349C289.162 244.723 294.102 248.131 296.283 251.655C297.131 253.021 297.296 254.077 296.746 254.634C295.374 256.055 287.779 251.935 285.834 251.319Z" fill="black"/>
<path d="M318.363 271.741C321.501 273.261 324.954 272.663 326.08 270.403C327.206 268.143 325.574 265.08 322.435 263.56C319.298 262.04 315.846 262.639 314.718 264.898C313.592 267.157 315.226 270.219 318.363 271.741Z" fill="black"/>
<path d="M333.811 260.519C333.867 257.063 335.986 254.303 338.533 254.344C341.078 254.394 343.096 257.224 343.04 260.674C342.982 264.123 340.864 266.883 338.318 266.84C335.771 266.799 333.754 263.968 333.811 260.519Z" fill="black"/>
<path fill-rule="evenodd" clip-rule="evenodd" d="M402.856 302.85C402.906 303.027 402.835 302.778 402.856 302.85C407.97 302.85 416 308.651 416 322.667C416 336.614 410.138 352.411 408.754 355.918C387.637 405.874 337.235 433.682 277.197 431.922C221.226 430.282 173.491 401.128 152.602 353.602C139.971 353.616 126.948 348.131 117.049 339.472C106.615 330.349 100.182 318.542 98.9267 306.229C97.9496 296.642 99.1406 287.722 102.186 279.942L90.4539 270.128C36.7643 225.382 204.686 41.1464 258.39 87.3849C258.661 87.6172 276.662 105.048 276.706 105.09C302.6 94.2376 371.982 73.5744 372.059 121.677C372.088 137.65 361.776 156.278 345.251 173.181C364.349 190.662 359.312 215.496 362.354 238.28L368.986 240.096C381.63 243.595 390.624 248.262 395.026 252.824C399.426 257.379 401.608 261.794 402.4 266.968C403.141 271.142 403.042 278.514 397.464 286.757C399.472 292.075 401.306 297.378 402.856 302.85ZM151.653 340.642C153.529 340.683 155.391 340.563 157.216 340.254C176.837 336.952 181.971 315.917 178.741 295.261C175.09 271.938 159.106 263.715 148.259 263.131C145.242 262.976 142.439 263.243 140.128 263.701C120.765 267.552 109.832 283.814 111.985 304.934C113.932 324.048 133.517 340.162 151.653 340.642ZM107.799 269.432C114.296 260.118 124.916 253.381 136.969 251.064C152.309 210.416 177.928 172.963 211.834 147.189C236.995 126.471 264.131 111.609 264.131 111.609C264.131 111.609 249.518 94.8825 245.104 93.6505C217.952 86.4134 159.313 126.33 121.87 179.074C106.722 200.411 85.0336 238.202 95.4035 257.64C96.6801 260.048 103.919 266.235 107.799 269.432ZM327.928 331.306C327.97 331.742 327.699 332.194 327.307 332.355C327.307 332.355 305.49 342.373 270.835 331.792C272.082 342.179 284.678 346.115 293.48 347.541C336.421 354.834 376.568 330.595 385.603 324.491C387.155 323.443 385.584 326.138 385.304 326.533C374.242 340.619 344.502 356.931 305.811 356.925C288.936 356.917 272.07 351.053 265.878 342.035C256.272 328.046 265.402 307.624 281.413 309.749C308.477 312.766 336.222 310.499 361.277 299.021C383.122 289.01 391.373 278 390.133 269.08C388.208 255.256 367.714 253.094 357.354 249.734C352.846 248.262 350.621 247.086 350.115 238.717C349.894 235.062 349.251 222.314 349.016 217.04C348.603 207.811 347.475 195.189 339.546 189.979C337.477 188.619 335.181 187.965 332.763 187.838C330.835 187.746 329.691 188.011 329.077 188.154C328.939 188.186 328.827 188.211 328.741 188.226C324.458 188.944 321.834 191.11 318.739 193.666C318.562 193.813 318.381 193.962 318.2 194.11C308.307 202.25 299.955 203.579 290.662 203.186C287.768 203.064 284.786 202.776 281.638 202.47C278.744 202.19 275.712 201.896 272.483 201.707L268.539 201.482C252.978 200.693 236.288 213.957 233.514 232.795C230.414 253.824 242.168 266.704 249.811 275.08C251.701 277.15 253.339 278.944 254.44 280.52C255.146 281.47 255.966 282.808 255.966 284.082C255.966 285.603 254.966 286.806 253.99 287.834C238.114 303.949 233.037 329.554 239.021 350.891C239.77 353.552 240.717 356.101 241.837 358.536C255.874 390.914 299.421 405.994 341.955 392.278C371.766 382.667 398.106 359.44 403.469 327.398C404.746 319.05 402.87 315.826 400.317 314.269C397.614 312.629 394.376 313.198 394.376 313.198C394.376 313.198 392.899 303.224 388.72 294.157C376.318 303.814 360.357 310.602 348.203 314.043C328.733 319.558 307.699 321.704 287.579 319.104C279.418 318.05 273.934 317.341 271.584 324.878C298.422 334.579 326.829 330.426 326.829 330.426C327.378 330.37 327.87 330.763 327.928 331.306ZM250.496 143.05C235.818 150.463 219.429 163.662 206.12 178.848C205.65 179.39 206.349 180.136 206.926 179.722C218.422 171.464 234.184 163.79 254.832 158.819C277.96 153.251 300.227 155.588 313.827 158.665C314.512 158.82 314.939 157.658 314.334 157.32C305.347 152.343 291.554 148.964 281.77 148.893C281.291 148.886 281.021 148.337 281.306 147.957C282.995 145.711 285.314 143.493 287.432 141.888C287.902 141.522 287.618 140.769 287.018 140.804C274.846 141.542 247.043 154.219 247.144 153.758C247.856 150.379 250.102 145.915 251.266 143.831C251.544 143.339 251.002 142.796 250.496 143.05Z" fill="black"/>
</svg>
