<svg width="512" height="512" viewBox="0 0 512 512" fill="none" xmlns="http://www.w3.org/2000/svg">
<path fill-rule="evenodd" clip-rule="evenodd" d="M352.152 171.248C358.572 189.82 363.196 208.78 364.716 228.432C366.604 252.812 365.74 277.02 360.6 301C360.46 301.66 360.164 302.28 359.944 302.92C358.332 302.924 356.688 302.724 355.112 302.968C341.796 305.06 328.492 307.228 315.188 309.384C301.436 311.612 287.664 313.752 273.936 316.132C269.072 316.972 263.052 315.968 261.088 322.696C261.032 322.88 260.472 322.912 260.148 323.016L260.812 282.812L260.136 185.804L266.544 184.704C277.024 182.988 287.504 181.248 297.992 179.58C310.508 177.592 323.036 175.66 335.56 173.72C341.084 172.86 346.616 172.072 352.152 171.248Z" fill="#439934"/>
<path fill-rule="evenodd" clip-rule="evenodd" d="M246.916 440.216C240.156 434.404 233.16 428.848 226.68 422.736C191.812 389.848 166.308 351.14 153.748 304.472C150.288 291.628 147.98 278.576 147.24 265.304C146.72 256.016 145.968 246.644 146.624 237.404C148.372 212.828 151.924 188.488 159.132 164.816L159.528 164.264C160.228 165.196 161.236 166.02 161.592 167.072C168.628 187.792 175.612 208.528 182.56 229.276C204.392 294.476 226.196 359.692 248.064 424.876C248.492 426.148 249.6 427.192 250.396 428.34L246.916 440.216Z" fill="#45A538"/>
<path fill-rule="evenodd" clip-rule="evenodd" d="M352.152 171.248C346.616 172.072 341.08 172.86 335.556 173.712C323.032 175.652 310.504 177.584 297.988 179.572C287.5 181.24 277.02 182.98 266.54 184.696L260.132 185.796L260.084 181.616C259.872 178.18 259.508 174.748 259.468 171.312C259.192 149.4 259.02 127.488 258.748 105.576C258.58 91.8599 258.328 78.1479 258.048 64.4359C257.876 55.9159 257.692 47.3919 257.308 38.8839C257.1 34.3119 256.364 29.7639 256.064 25.1919C255.896 22.5639 256.128 19.9159 256.18 17.2759C259.448 23.6079 262.644 29.9879 266.004 36.2719C271.312 46.2079 279.768 53.5279 287.38 61.5159C317.472 93.0839 338.836 129.788 352.152 171.248Z" fill="#46A037"/>
<path fill-rule="evenodd" clip-rule="evenodd" d="M260.144 323.012C260.468 322.908 261.032 322.876 261.084 322.692C263.048 315.964 269.068 316.968 273.932 316.128C287.66 313.752 301.432 311.608 315.184 309.38C328.488 307.224 341.792 305.056 355.108 302.964C356.684 302.716 358.328 302.92 359.94 302.916C357.452 311.796 355.492 320.868 352.336 329.504C348.752 339.3 344.416 348.86 339.812 358.232C332.919 372.211 324.389 385.32 314.4 397.284C306.724 406.516 298.168 415.048 289.592 423.476C284.852 428.136 279.264 431.932 274.064 436.12L272.716 435.2L267.86 431.048L262.836 420.036C259.404 407.19 257.532 393.978 257.26 380.684L257.352 378.44L258.036 368.736C258.264 365.424 258.568 362.116 258.708 358.796C259.224 346.868 259.672 334.94 260.144 323.012Z" fill="#409433"/>
<path fill-rule="evenodd" clip-rule="evenodd" d="M260.144 323.012C259.672 334.94 259.224 346.868 258.716 358.8C258.576 362.12 258.272 365.428 258.044 368.74L254.984 369.896C248.188 349.888 241.388 330.092 234.736 310.244C223.736 277.408 212.868 244.52 201.884 211.676C193.012 185.166 184.079 158.676 175.084 132.208C174.664 130.968 173.456 130 172.616 128.904L192.2 92.896C192.872 94.064 193.76 95.156 194.184 96.412C203.254 123.22 212.278 150.044 221.256 176.884C232.92 211.804 244.512 246.752 256.168 281.676C256.632 283.072 257.4 284.36 258.132 285.924L260.812 282.804L260.144 323.012Z" fill="#4FAA41"/>
<path fill-rule="evenodd" clip-rule="evenodd" d="M172.62 128.908C173.46 130.004 174.664 130.972 175.088 132.212C184.083 158.681 193.016 185.17 201.888 211.68C212.872 244.524 223.74 277.412 234.74 310.248C241.388 330.092 248.188 349.892 254.988 369.9L258.048 368.744L257.364 378.448L256.744 380.684C255.68 391.308 254.784 401.956 253.488 412.556C252.836 417.868 251.452 423.084 250.4 428.344C249.608 427.196 248.496 426.152 248.068 424.88C226.2 359.692 204.396 294.48 182.564 229.28C175.618 208.531 168.629 187.796 161.596 167.076C161.24 166.024 160.236 165.2 159.532 164.268L172.62 128.908Z" fill="#4AA73C"/>
<path fill-rule="evenodd" clip-rule="evenodd" d="M260.808 282.808L258.128 285.928C257.396 284.364 256.628 283.072 256.164 281.68C244.512 246.756 232.916 211.808 221.252 176.888C212.274 150.049 203.25 123.224 194.18 96.416C193.76 95.16 192.872 94.064 192.196 92.9L216.416 61.04C217.18 62.06 218.268 62.968 218.664 64.116C225.388 83.8 232.052 103.508 238.676 123.228C244.864 141.644 250.96 160.088 257.22 178.48C257.64 179.712 259.1 180.584 260.076 181.624L260.124 185.804C260.356 218.132 260.584 250.472 260.808 282.808Z" fill="#57AE47"/>
<path fill-rule="evenodd" clip-rule="evenodd" d="M260.084 181.616C259.108 180.576 257.648 179.704 257.228 178.472C250.968 160.08 244.872 141.636 238.684 123.22C232.06 103.5 225.396 83.7959 218.672 64.1079C218.276 62.9599 217.188 62.0519 216.424 61.0319C224.3 53.3199 231.932 45.3319 240.124 37.9759C247.408 31.4399 253.264 24.4319 253.532 14.1039C253.544 13.6759 253.768 13.2479 254.112 12.0479L256.188 17.2719C256.136 19.9159 255.9 22.5599 256.072 25.1879C256.372 29.7599 257.108 34.3079 257.316 38.8799C257.7 47.3879 257.884 55.9118 258.056 64.4319C258.332 78.1439 258.584 91.8559 258.756 105.572C259.024 127.484 259.2 149.396 259.476 171.308C259.508 174.752 259.868 178.18 260.084 181.616Z" fill="#60B24F"/>
<path fill-rule="evenodd" clip-rule="evenodd" d="M250.392 428.34C251.444 423.08 252.828 417.86 253.48 412.552C254.78 401.956 255.672 391.304 256.736 380.68L257 380.64L257.264 380.684C257.536 393.978 259.408 407.19 262.84 420.036C262.136 420.964 261.14 421.792 260.768 422.84C257.86 431.04 255.12 439.304 252.196 447.504C251.796 448.624 250.684 449.496 249.9 450.48L246.912 440.216L250.392 428.34Z" fill="#A9AA88"/>
<path fill-rule="evenodd" clip-rule="evenodd" d="M249.904 450.484C250.688 449.5 251.804 448.628 252.2 447.508C255.124 439.308 257.868 431.048 260.772 422.844C261.144 421.796 262.136 420.968 262.844 420.04L267.864 431.056C266.872 432.464 265.504 433.732 264.952 435.3L255.336 463.536C254.94 464.668 253.588 465.468 252.684 466.424L249.904 450.484Z" fill="#B6B598"/>
<path fill-rule="evenodd" clip-rule="evenodd" d="M252.684 466.42C253.592 465.468 254.94 464.664 255.336 463.532L264.952 435.296C265.5 433.732 266.872 432.46 267.864 431.052L272.724 435.2C270.376 437.52 269.072 440.2 269.856 443.588L268.38 448.42C267.708 449.248 266.736 449.968 266.404 450.916C263.048 460.528 259.844 470.192 256.464 479.804C256.036 481.024 254.848 481.98 254.008 483.052C253.572 477.504 253.128 471.968 252.684 466.42Z" fill="#C2C1A7"/>
<path fill-rule="evenodd" clip-rule="evenodd" d="M254.012 483.052C254.848 481.976 256.036 481.02 256.468 479.804C259.848 470.196 263.052 460.532 266.408 450.916C266.74 449.972 267.708 449.248 268.384 448.42L266.348 470.6C265.804 471.228 265.016 471.776 264.756 472.508C262.456 478.964 260.288 485.468 257.98 491.924C257.504 493.256 256.592 494.432 255.88 495.676C255.248 494.848 254.116 494.048 254.064 493.184C253.86 489.82 254 486.432 254.012 483.052Z" fill="#CECDB7"/>
<path fill-rule="evenodd" clip-rule="evenodd" d="M255.876 495.676C256.588 494.428 257.5 493.252 257.976 491.924C260.288 485.472 262.452 478.968 264.752 472.508C265.012 471.776 265.804 471.232 266.344 470.6L266.392 485.16L261.52 497.656L255.876 495.676Z" fill="#DBDAC7"/>
<path fill-rule="evenodd" clip-rule="evenodd" d="M261.52 497.66L266.392 485.164L267.396 499.948L261.52 497.66Z" fill="#EBE9DC"/>
<path fill-rule="evenodd" clip-rule="evenodd" d="M269.856 443.592C269.072 440.204 270.372 437.52 272.724 435.204L274.072 436.124L269.856 443.592Z" fill="#CECDB7"/>
<path fill-rule="evenodd" clip-rule="evenodd" d="M257.264 380.688L257 380.644L256.736 380.684L257.356 378.448L257.264 380.688Z" fill="#4FAA41"/>
</svg>
