<svg width="512" height="512" viewBox="0 0 512 512" fill="none" xmlns="http://www.w3.org/2000/svg">
<path fill-rule="evenodd" clip-rule="evenodd" d="M253.222 412.519C251.486 412.519 249.866 412.056 248.361 411.246L232.969 402.103C230.654 400.83 231.812 400.367 232.506 400.136C235.631 399.094 236.21 398.863 239.45 397.011C239.797 396.78 240.26 396.895 240.607 397.127L252.412 404.186C252.875 404.418 253.454 404.418 253.801 404.186L299.978 377.452C300.441 377.221 300.673 376.758 300.673 376.179V322.827C300.673 322.248 300.441 321.785 299.978 321.553L253.801 294.935C253.338 294.704 252.759 294.704 252.412 294.935L206.235 321.553C205.772 321.785 205.54 322.364 205.54 322.827V376.179C205.54 376.642 205.772 377.221 206.235 377.452L218.85 384.743C225.678 388.215 229.96 384.165 229.96 380.114V327.456C229.96 326.761 230.539 326.067 231.349 326.067H237.251C237.946 326.067 238.64 326.646 238.64 327.456V380.114C238.64 389.257 233.663 394.581 224.984 394.581C222.322 394.581 220.239 394.581 214.336 391.687L202.184 384.743C199.175 383.007 197.323 379.767 197.323 376.295V322.942C197.323 319.47 199.175 316.23 202.184 314.494L248.361 287.76C251.255 286.139 255.19 286.139 258.083 287.76L304.26 314.494C307.269 316.23 309.121 319.47 309.121 322.942V376.295C309.121 379.767 307.269 383.007 304.26 384.743L258.083 411.478C256.578 412.172 254.842 412.519 253.222 412.519ZM267.457 375.832C247.204 375.832 243.038 366.573 243.038 358.704C243.038 358.009 243.616 357.315 244.427 357.315H250.445C251.139 357.315 251.718 357.778 251.718 358.472C252.644 364.606 255.305 367.615 267.573 367.615C277.295 367.615 281.461 365.416 281.461 360.208C281.461 357.199 280.304 355 265.143 353.496C252.528 352.223 244.658 349.445 244.658 339.376C244.658 330.002 252.528 324.447 265.721 324.447C280.535 324.447 287.826 329.539 288.752 340.649C288.752 340.997 288.636 341.344 288.405 341.691C288.173 341.922 287.826 342.154 287.479 342.154H281.461C280.882 342.154 280.304 341.691 280.188 341.112C278.799 334.747 275.211 332.664 265.721 332.664C255.074 332.664 253.801 336.367 253.801 339.145C253.801 342.501 255.305 343.543 269.656 345.394C283.891 347.246 290.604 349.908 290.604 359.861C290.488 370.045 282.155 375.832 267.457 375.832Z" fill="#539E43"/>
<path fill-rule="evenodd" clip-rule="evenodd" d="M109.946 203.853C109.946 201.77 108.788 199.803 106.937 198.761L57.8662 170.523C57.0561 170.06 56.1302 169.828 55.2043 169.712H54.7414C53.8156 169.712 52.8897 170.06 52.0796 170.523L3.00904 198.761C1.15732 199.803 0 201.77 0 203.853L0.115732 279.774C0.115732 280.815 0.694394 281.857 1.62025 282.32C2.54611 282.899 3.70344 282.899 4.51356 282.32L33.6781 265.655C35.5298 264.613 36.6872 262.646 36.6872 260.562V225.032C36.6872 222.949 37.8445 220.982 39.6962 219.94L52.0796 212.765C53.0054 212.186 54.047 211.955 55.0886 211.955C56.1302 211.955 57.1718 212.186 57.9819 212.765L70.3653 219.94C72.217 220.982 73.3743 222.949 73.3743 225.032V260.562C73.3743 262.646 74.5317 264.613 76.3834 265.655L105.548 282.32C106.474 282.899 107.631 282.899 108.557 282.32C109.483 281.857 110.062 280.815 110.062 279.774L109.946 203.853Z" fill="#A9A9A9"/>
<path fill-rule="evenodd" clip-rule="evenodd" d="M345.808 99.3472C344.882 98.8843 343.725 98.8843 342.915 99.3472C341.989 99.9259 341.41 100.852 341.41 101.893V177.119C341.41 177.814 341.063 178.508 340.368 178.971C339.674 179.318 338.98 179.318 338.285 178.971L326.018 171.911C324.166 170.87 321.967 170.87 320.115 171.911L271.045 200.266C269.193 201.307 268.036 203.275 268.036 205.358V261.951C268.036 264.034 269.193 266.002 271.045 267.043L320.115 295.398C321.967 296.439 324.166 296.439 326.018 295.398L375.088 267.043C376.94 266.002 378.097 264.034 378.097 261.951V120.873C378.097 118.675 376.94 116.707 375.088 115.665L345.808 99.3472ZM341.294 243.318C341.294 243.897 341.062 244.36 340.599 244.591L323.818 254.313C323.355 254.544 322.777 254.544 322.314 254.313L305.533 244.591C305.07 244.36 304.838 243.781 304.838 243.318V223.875C304.838 223.297 305.07 222.834 305.533 222.602L322.314 212.881C322.777 212.649 323.355 212.649 323.818 212.881L340.599 222.602C341.062 222.834 341.294 223.412 341.294 223.875V243.318Z" fill="#A9A9A9"/>
<path fill-rule="evenodd" clip-rule="evenodd" d="M509.107 223.412C510.958 222.371 512 220.403 512 218.32V204.548C512 202.465 510.843 200.497 509.107 199.456L460.383 171.217C458.532 170.175 456.333 170.175 454.481 171.217L405.41 199.571C403.559 200.613 402.401 202.58 402.401 204.664V261.257C402.401 263.34 403.559 265.307 405.41 266.349L454.134 294.125C455.985 295.166 458.184 295.166 459.92 294.125L489.432 277.691C490.358 277.228 490.937 276.186 490.937 275.145C490.937 274.103 490.358 273.061 489.432 272.599L440.13 244.244C439.204 243.665 438.626 242.74 438.626 241.698V223.991C438.626 222.949 439.204 221.908 440.13 221.445L455.523 212.649C456.448 212.071 457.606 212.071 458.532 212.649L473.924 221.445C474.85 222.024 475.429 222.949 475.429 223.991V237.879C475.429 238.92 476.007 239.962 476.933 240.425C477.859 241.004 479.016 241.004 479.942 240.425L509.107 223.412Z" fill="#A9A9A9"/>
<path fill-rule="evenodd" clip-rule="evenodd" d="M456.68 220.751C457.027 220.519 457.49 220.519 457.837 220.751L467.211 226.19C467.559 226.421 467.79 226.769 467.79 227.232V238.11C467.79 238.573 467.559 238.92 467.211 239.152L457.837 244.591C457.49 244.823 457.027 244.823 456.68 244.591L447.305 239.152C446.958 238.92 446.727 238.573 446.727 238.11V227.232C446.727 226.769 446.958 226.421 447.305 226.19L456.68 220.751Z" fill="#539E43"/>
<path fill-rule="evenodd" clip-rule="evenodd" d="M192 171.448C190.148 170.407 187.949 170.407 186.098 171.448L137.374 199.571C135.523 200.613 134.481 202.58 134.481 204.664V261.025C134.481 263.108 135.638 265.076 137.374 266.118L186.098 294.24C187.949 295.282 190.148 295.282 192 294.24L240.723 266.118C242.575 265.076 243.617 263.108 243.617 261.025V204.664C243.617 202.58 242.459 200.613 240.723 199.571L192 171.448Z" fill="#A9A9A9"/>
<path fill-rule="evenodd" clip-rule="evenodd" d="M192 171.448C190.148 170.407 187.949 170.407 186.098 171.448L137.374 199.571C135.523 200.613 134.481 202.58 134.481 204.664V261.025C134.481 263.108 135.638 265.076 137.374 266.118L186.098 294.24C187.949 295.282 190.148 295.282 192 294.24L240.723 266.118C242.575 265.076 243.617 263.108 243.617 261.025V204.664C243.617 202.58 242.459 200.613 240.723 199.571L192 171.448Z" fill="url(#paint0_linear_34_169)"/>
<mask id="mask0_34_169" style="mask-type:luminance" maskUnits="userSpaceOnUse" x="134" y="170" width="110" height="126">
<path fill-rule="evenodd" clip-rule="evenodd" d="M192 171.448C190.148 170.407 187.949 170.407 186.098 171.448L137.374 199.571C135.523 200.613 134.481 202.58 134.481 204.664V261.025C134.481 263.108 135.638 265.076 137.374 266.118L186.098 294.24C187.949 295.282 190.148 295.282 192 294.24L240.723 266.118C242.575 265.076 243.617 263.108 243.617 261.025V204.664C243.617 202.58 242.459 200.613 240.723 199.571L192 171.448Z" fill="white"/>
</mask>
<g mask="url(#mask0_34_169)">
<path fill-rule="evenodd" clip-rule="evenodd" d="M240.84 199.572L191.885 171.449C191.422 171.217 190.844 170.986 190.381 170.87L135.523 264.845C135.986 265.423 136.565 265.886 137.144 266.233L186.098 294.356C187.487 295.166 189.108 295.398 190.612 294.935L242.113 200.729C241.766 200.266 241.303 199.919 240.84 199.572Z" fill="url(#paint1_linear_34_169)"/>
</g>
<mask id="mask1_34_169" style="mask-type:luminance" maskUnits="userSpaceOnUse" x="134" y="170" width="110" height="126">
<path fill-rule="evenodd" clip-rule="evenodd" d="M192 171.448C190.148 170.407 187.949 170.407 186.098 171.448L137.374 199.571C135.523 200.613 134.481 202.58 134.481 204.664V261.025C134.481 263.108 135.638 265.076 137.374 266.118L186.098 294.24C187.949 295.282 190.148 295.282 192 294.24L240.723 266.118C242.575 265.076 243.617 263.108 243.617 261.025V204.664C243.617 202.58 242.459 200.613 240.723 199.571L192 171.448Z" fill="white"/>
</mask>
<g mask="url(#mask1_34_169)">
<path fill-rule="evenodd" clip-rule="evenodd" d="M240.955 266.117C242.344 265.307 243.385 263.919 243.848 262.414L190.148 170.754C188.76 170.523 187.255 170.638 185.982 171.448L137.375 199.456L189.801 295.051C190.496 294.935 191.306 294.703 192 294.356L240.955 266.117Z" fill="url(#paint2_linear_34_169)"/>
<path fill-rule="evenodd" clip-rule="evenodd" d="M240.955 266.118L192.116 294.24C191.422 294.588 190.727 294.819 189.917 294.935L190.843 296.671L245.006 265.307V264.613L243.617 262.298C243.385 263.919 242.344 265.307 240.955 266.118Z" fill="url(#paint3_linear_34_169)"/>
<path fill-rule="evenodd" clip-rule="evenodd" d="M240.955 266.118L192.116 294.24C191.422 294.588 190.727 294.819 189.917 294.935L190.843 296.671L245.006 265.307V264.613L243.617 262.298C243.385 263.919 242.344 265.307 240.955 266.118Z" fill="url(#paint4_linear_34_169)"/>
</g>
<defs>
<linearGradient id="paint0_linear_34_169" x1="178.525" y1="176.605" x2="126.662" y2="239.37" gradientUnits="userSpaceOnUse">
<stop stop-color="#41873F"/>
<stop offset="0.3288" stop-color="#418B3D"/>
<stop offset="0.6352" stop-color="#419637"/>
<stop offset="0.9319" stop-color="#3FA92D"/>
<stop offset="1" stop-color="#3FAE2A"/>
</linearGradient>
<linearGradient id="paint1_linear_34_169" x1="210.446" y1="309.82" x2="340.18" y2="257.991" gradientUnits="userSpaceOnUse">
<stop offset="0.1376" stop-color="#41873F"/>
<stop offset="0.4032" stop-color="#54A044"/>
<stop offset="0.7136" stop-color="#66B848"/>
<stop offset="0.9081" stop-color="#6CC04A"/>
</linearGradient>
<linearGradient id="paint2_linear_34_169" x1="132.702" y1="298.71" x2="245.445" y2="298.71" gradientUnits="userSpaceOnUse">
<stop offset="0.0919165" stop-color="#6CC04A"/>
<stop offset="0.2864" stop-color="#66B848"/>
<stop offset="0.5968" stop-color="#54A044"/>
<stop offset="0.8624" stop-color="#41873F"/>
</linearGradient>
<linearGradient id="paint3_linear_34_169" x1="132.702" y1="314.752" x2="245.445" y2="314.752" gradientUnits="userSpaceOnUse">
<stop offset="0.0919165" stop-color="#6CC04A"/>
<stop offset="0.2864" stop-color="#66B848"/>
<stop offset="0.5968" stop-color="#54A044"/>
<stop offset="0.8624" stop-color="#41873F"/>
</linearGradient>
<linearGradient id="paint4_linear_34_169" x1="121.082" y1="181.303" x2="110.452" y2="324.372" gradientUnits="userSpaceOnUse">
<stop stop-color="#41873F"/>
<stop offset="0.3288" stop-color="#418B3D"/>
<stop offset="0.6352" stop-color="#419637"/>
<stop offset="0.9319" stop-color="#3FA92D"/>
<stop offset="1" stop-color="#3FAE2A"/>
</linearGradient>
</defs>
</svg>
