<svg width="512" height="512" viewBox="0 0 512 512" fill="none" xmlns="http://www.w3.org/2000/svg">
<path d="M435.769 40.6152H75.3077V418H435.769V40.6152Z" fill="white"/>
<path fill-rule="evenodd" clip-rule="evenodd" d="M27.888 41.6198C27.888 18.6338 46.4568 0 69.3627 0H442.635C465.541 0 484.11 18.6338 484.11 41.6198V416.198C484.11 439.184 465.541 457.818 442.635 457.818H200.766L138.821 509.144C130.78 515.807 118.64 510.066 118.64 499.604V457.818H69.3627C46.4568 457.818 27.888 439.184 27.888 416.198V41.6198ZM118.608 75.642H317.999C361.06 75.642 395.97 110.673 395.97 153.886C395.97 188.514 373.554 217.888 342.488 228.193C378.812 234.859 406.34 266.78 406.34 305.158C406.34 348.371 371.433 383.401 328.37 383.401H118.611V232.13L118.608 75.642ZM284.437 146.052H191.181V192.998H284.437C297.355 192.998 307.828 182.489 307.828 169.525C307.828 156.561 297.355 146.052 284.437 146.052ZM191.181 250.38H292.206C306.56 250.38 318.198 262.056 318.198 276.462C318.198 290.866 306.56 302.543 292.206 302.543H191.181V250.38Z" fill="#1F1F1F"/>
</svg>
