<svg width="512" height="512" viewBox="0 0 512 512" fill="none" xmlns="http://www.w3.org/2000/svg">
<path d="M36.2479 255.001C36.2479 341.591 86.5696 416.422 159.54 451.884L55.1878 165.971C43.0496 193.178 36.2479 223.286 36.2479 255.001ZM402.69 243.962C402.69 216.926 392.979 198.202 384.649 183.629C373.56 165.609 363.166 150.349 363.166 132.329C363.166 112.22 378.418 93.5004 399.901 93.5004C400.871 93.5004 401.791 93.6211 402.736 93.6752C363.816 58.0183 311.962 36.2479 255.009 36.2479C178.584 36.2479 111.345 75.4596 72.2295 134.852C77.3619 135.006 82.1989 135.114 86.3074 135.114C109.189 135.114 144.609 132.337 144.609 132.337C156.401 131.642 157.792 148.963 146.012 150.357C146.012 150.357 134.161 151.752 120.974 152.443L200.637 389.399L248.511 245.818L214.428 152.434C202.648 151.743 191.488 150.349 191.488 150.349C179.7 149.658 181.081 131.634 192.87 132.329C192.87 132.329 228.997 135.106 250.493 135.106C273.371 135.106 308.794 132.329 308.794 132.329C320.595 131.634 321.981 148.955 310.197 150.349C310.197 150.349 298.321 151.743 285.159 152.434L364.215 387.596L386.036 314.68C395.493 284.422 402.69 262.689 402.69 243.962ZM258.847 274.136L193.211 464.863C212.809 470.624 233.534 473.775 255.009 473.775C280.484 473.775 304.915 469.371 327.655 461.374C327.068 460.438 326.535 459.443 326.098 458.361L258.847 274.136ZM446.964 150.045C447.904 157.013 448.437 164.494 448.437 172.54C448.437 194.739 444.291 219.694 431.803 250.897L364.981 444.095C430.018 406.17 473.762 335.71 473.762 255.005C473.766 216.971 464.051 181.206 446.964 150.045ZM255.009 0C114.401 0 0 114.392 0 255.001C0 395.626 114.401 510.014 255.009 510.014C395.614 510.014 510.031 395.626 510.031 255.001C510.027 114.392 395.614 0 255.009 0ZM255.009 498.326C120.849 498.326 11.6927 389.17 11.6927 255.001C11.6927 120.84 120.844 11.6927 255.009 11.6927C389.166 11.6927 498.313 120.84 498.313 255.001C498.313 389.17 389.166 498.326 255.009 498.326Z" fill="#464342"/>
</svg>
